<svg viewBox="0 0 1000 460" xmlns="http://www.w3.org/2000/svg">
<rect width="1000" height="460" fill="#010B40"/>
<path d="M-20.0 359.3L1020.0 360.5L1020.0 361.5L1020.0 359.7L1020.0 358.8L1020.0 358.5L-20.0 357.0L-20.0 357.0L-20.0 356.8L-20.0 359.1L-20.0 359.3ZM630.7 345.3L631.4 350.9L632.5 353.1L632.1 355.4L631.3 356.7L629.8 354.0L629.0 355.4L629.8 358.9L629.5 360.8L628.3 361.9L628.0 365.9L626.3 371.4L624.1 377.8L621.4 386.7L619.8 393.3L617.8 398.7L614.3 399.8L610.5 401.8L608.0 400.6L604.5 398.9L603.3 396.4L603.0 392.3L601.5 388.5L601.1 385.2L601.9 381.8L603.9 381.0L603.9 379.4L606.0 375.9L606.4 372.9L605.4 370.6L604.5 367.7L604.2 363.4L605.7 360.7L606.3 357.7L608.5 357.6L610.9 356.6L612.5 355.8L614.4 355.7L616.9 353.0L620.5 350.1L621.8 347.8L621.2 345.8L623.0 346.3L625.4 343.1L625.5 340.2L626.9 338.1L628.4 340.2L629.6 342.2L630.7 345.3ZM1020.0 346.2L1020.0 349.9L1020.0 348.2L1020.0 350.1L1020.0 352.0L1020.0 354.1L1020.0 358.1L1020.0 360.4L1020.0 361.0L1020.0 365.0L1020.0 367.4L1020.0 370.6L1020.0 373.1L1020.0 375.3L1020.0 377.3L1020.0 378.5L1020.0 381.4L1020.0 386.5L1020.0 385.5L1020.0 387.5L1020.0 386.8L1020.0 391.8L1020.0 394.6L1020.0 396.4L1020.0 400.2L1020.0 404.0L1020.0 406.7L1020.0 409.6L1020.0 413.6L1020.0 417.7L1020.0 419.9L1020.0 424.1L1020.0 426.8L1020.0 430.1L1020.0 434.4L1020.0 436.7L1020.0 440.4L1020.0 442.7L1020.0 446.7L1020.0 449.1L1020.0 452.6L1020.0 455.8L1020.0 457.3L1020.0 458.9L1020.0 459.1L1020.0 461.0L1020.0 462.8L1020.0 464.9L1020.0 462.8L1020.0 462.0L1020.0 459.5L1020.0 460.4L1020.0 463.8L1020.0 462.5L1020.0 461.8L1020.0 461.4L1020.0 460.1L1020.0 457.2L1020.0 453.6L1019.9 451.3L1017.7 449.4L1013.6 448.8L1015.0 446.5L1013.9 443.0L1011.8 446.3L1007.9 447.1L1010.2 444.5L1010.9 441.8L1012.6 439.5L1012.2 436.1L1008.7 440.1L1006.0 441.7L1004.3 445.4L1000.9 443.5L1001.0 441.0L998.3 437.6L996.0 435.8L996.8 434.7L991.3 431.9L988.2 431.8L984.0 429.5L976.2 429.9L970.6 431.6L965.7 433.2L961.5 432.8L956.9 435.3L953.1 436.3L952.3 438.8L950.7 440.7L947.0 440.8L944.3 441.2L940.4 440.4L937.3 440.9L934.3 441.1L931.7 443.6L930.5 443.4L928.3 444.7L926.2 446.2L923.0 446.0L920.1 446.0L915.5 443.0L913.2 442.1L913.3 439.5L915.4 438.8L916.1 437.8L916.0 436.1L916.5 432.8L916.0 430.0L913.7 425.3L913.0 422.6L913.2 419.9L911.5 416.9L911.4 415.5L909.4 413.6L908.9 409.9L906.4 406.2L905.8 404.2L907.7 406.2L906.3 401.9L908.4 403.3L909.7 405.1L909.6 402.7L907.5 399.0L907.1 397.5L906.1 396.1L906.5 393.4L907.4 392.2L908.0 389.9L907.6 387.1L909.3 383.8L909.7 387.3L911.5 384.1L915.0 382.5L917.2 380.5L920.5 378.8L922.5 378.4L923.7 379.0L927.1 377.3L929.7 376.7L930.4 375.7L931.5 375.3L933.9 375.4L938.5 374.0L940.9 371.9L942.0 369.4L944.5 367.1L944.7 365.2L944.8 362.6L947.9 358.6L949.7 362.7L951.6 361.8L950.0 359.5L951.4 357.3L953.3 358.3L953.8 354.7L956.2 352.4L957.3 350.5L959.4 349.7L959.5 348.4L961.4 349.0L961.5 347.8L963.4 347.1L965.5 346.5L968.7 348.6L971.1 351.4L973.8 351.5L976.6 351.9L975.7 349.3L977.8 345.6L979.7 344.3L979.1 343.2L980.9 340.5L983.6 338.8L985.8 339.4L989.5 338.5L989.4 336.1L986.2 334.5L988.5 333.9L991.4 335.0L993.7 337.0L997.4 338.2L998.6 337.7L1001.3 339.1L1003.8 337.8L1005.5 338.2L1006.5 337.3L1008.5 339.6L1007.3 342.1L1005.7 344.0L1004.2 344.2L1004.7 346.1L1003.4 348.4L1001.9 350.7L1002.2 352.0L1005.6 354.6L1009.0 356.1L1011.2 357.7L1014.4 360.5L1015.6 360.5L1017.9 361.7L1018.5 363.2L1020.0 364.8L1020.0 363.2L1020.0 360.6L1020.0 358.6L1020.0 356.0L1020.0 352.3L1020.0 350.0L1020.0 348.6L1020.0 345.9L1020.0 342.4L1020.0 341.4L1020.0 339.9L1020.0 337.4L1020.0 334.8L1020.0 333.5L1020.0 331.7L1020.0 334.0L1020.0 336.9L1020.0 337.5L1020.0 339.5L1020.0 341.9L1020.0 344.5L1020.0 346.2ZM937.9 329.7L936.1 329.8L930.3 326.5L934.4 325.6L936.6 327.0L938.2 328.4L937.9 329.7ZM954.1 329.2L950.3 330.3L949.8 329.7L950.2 328.1L952.1 325.2L956.4 323.4L956.9 322.3L960.6 321.2L963.7 321.1L965.0 320.5L966.7 321.1L965.1 322.3L960.6 324.4L956.9 325.7L954.1 329.2ZM925.6 319.6L927.2 320.9L929.9 320.5L931.0 322.5L926.0 323.4L922.9 324.1L920.6 324.0L922.1 321.3L924.5 321.3L925.6 319.6ZM947.4 319.6L946.8 322.2L940.2 323.6L934.4 323.0L934.4 321.3L937.9 320.3L940.6 321.7L943.5 321.3L947.4 319.6ZM885.3 313.4L893.7 313.9L894.6 312.0L902.7 314.2L904.3 317.3L910.8 318.1L916.1 320.9L911.2 322.7L906.4 320.8L902.4 320.9L897.9 320.6L893.9 319.8L888.8 318.0L885.6 317.5L883.8 318.1L875.9 316.2L875.1 314.1L871.1 313.8L874.1 309.3L879.4 309.6L882.9 311.4L884.7 311.8L885.3 313.4ZM998.8 310.8L996.6 314.0L996.1 310.5L996.9 308.8L997.8 307.2L998.8 308.6L998.8 310.8ZM966.3 297.9L964.7 299.4L961.7 298.6L960.8 296.6L965.2 296.3L966.3 297.9ZM980.3 296.2L981.9 299.7L978.2 297.8L974.6 297.4L972.1 297.7L969.1 297.6L970.1 295.0L975.5 294.8L980.3 296.2ZM996.3 287.0L997.5 294.6L1002.0 297.4L1005.6 292.5L1010.6 289.6L1014.5 289.6L1018.2 291.3L1020.0 292.9L1020.0 293.8L1020.0 297.1L1020.0 299.8L1020.0 302.2L1020.0 304.5L1020.0 307.3L1020.0 310.2L1020.0 312.7L1020.0 313.2L1020.0 316.3L1020.0 319.4L1020.0 324.4L1020.0 324.2L1020.0 326.3L1020.0 327.1L1020.0 328.0L1020.0 329.9L1020.0 331.3L1020.0 331.6L1020.0 330.4L1020.0 329.9L1020.0 329.2L1020.0 326.2L1020.0 323.6L1020.0 319.5L1020.0 317.4L1020.0 318.8L1020.0 320.3L1020.0 323.8L1020.0 325.4L1020.0 324.6L1020.0 324.4L1020.0 320.6L1018.0 319.6L1016.9 321.0L1011.4 321.1L1013.2 317.3L1015.9 316.0L1014.8 310.9L1012.7 306.9L1004.3 303.0L1000.7 302.6L994.2 298.2L992.9 300.5L991.2 300.9L990.2 299.2L990.2 297.2L986.9 294.9L991.6 293.2L994.7 293.3L994.3 292.0L988.0 292.0L986.2 289.2L982.4 288.4L980.5 286.0L986.4 284.9L988.6 283.4L995.6 285.3L996.3 287.0ZM957.6 275.0L954.1 279.6L950.8 280.5L946.6 279.6L939.4 279.8L935.6 280.5L935.0 284.1L938.8 288.2L941.2 286.1L949.3 284.5L949.0 286.7L947.1 286.0L945.2 288.8L941.3 290.6L945.4 296.6L944.7 298.2L948.6 303.6L948.5 306.7L946.2 308.1L944.5 306.4L946.6 302.6L942.3 304.4L941.3 303.1L941.8 301.3L938.7 298.5L939.0 294.0L936.1 295.4L936.5 300.9L936.7 307.6L933.9 308.3L932.0 306.9L933.3 302.6L932.6 298.0L930.8 298.0L929.4 294.8L931.2 291.7L931.8 288.0L934.0 280.9L934.9 279.0L938.6 275.5L942.0 276.9L947.5 277.5L952.5 277.3L956.8 273.9L957.6 275.0ZM972.6 276.3L972.3 280.4L970.1 280.0L969.4 282.8L971.2 285.3L970.0 285.9L968.2 282.9L967.0 276.9L967.8 273.1L969.3 271.4L969.6 274.0L972.2 274.4L972.6 276.3ZM873.1 309.1L868.3 309.2L864.6 305.3L859.1 301.4L857.2 298.6L853.9 294.8L851.8 291.3L848.4 284.7L844.6 280.8L843.3 276.7L841.7 273.1L837.8 270.1L835.6 266.1L832.3 263.5L827.7 258.3L827.4 255.9L830.2 256.1L836.9 257.0L840.7 261.6L844.1 264.8L846.5 266.7L850.6 271.8L855.0 271.9L858.7 275.1L861.2 279.0L864.5 281.1L862.8 285.0L865.3 286.6L866.8 286.7L867.6 290.0L869.1 292.6L872.3 293.0L874.4 296.0L873.3 301.8L873.1 309.1ZM925.5 273.1L930.4 277.4L925.3 278.0L923.8 281.2L924.0 285.4L919.8 288.6L919.7 293.3L918.0 300.5L917.4 298.8L912.5 300.9L910.7 298.0L907.6 297.8L905.5 296.3L900.3 298.0L898.7 295.7L895.9 295.9L892.3 295.4L891.6 289.1L889.4 287.8L887.3 283.8L886.8 279.7L887.3 275.3L889.8 272.2L893.0 273.8L896.4 272.9L897.3 269.0L899.1 268.1L904.3 267.1L907.4 263.4L909.6 260.4L911.3 258.6L915.0 256.1L918.4 252.8L920.5 249.1L922.3 249.1L924.5 251.5L924.7 253.5L927.6 254.8L931.2 256.2L930.9 258.1L928.0 258.3L928.8 260.6L925.6 262.2L923.1 266.4L926.3 270.9L925.5 273.1ZM962.5 242.1L962.9 245.3L963.2 247.9L961.7 252.2L960.1 247.4L958.1 249.8L959.5 253.2L958.3 255.4L953.1 252.7L951.9 249.3L953.2 247.1L950.5 244.9L949.1 246.8L947.1 246.6L943.9 249.2L943.1 247.9L944.8 243.9L947.6 242.6L949.9 240.8L951.5 243.0L954.8 241.7L955.5 239.6L958.6 239.5L958.3 235.8L961.8 238.0L962.2 240.4L962.5 242.1ZM766.2 252.5L762.4 253.6L760.3 249.9L759.5 243.1L761.5 235.5L764.5 238.1L766.5 241.4L768.6 246.3L768.0 251.2L766.2 252.5ZM148.1 234.2L144.5 234.7L143.7 234.3L145.0 233.0L144.9 231.1L147.4 230.5L148.3 230.7L148.1 234.2ZM952.1 233.4L950.5 234.9L949.2 237.9L947.8 239.3L945.1 236.0L946.0 234.8L947.1 233.5L947.6 230.6L950.0 230.3L949.3 233.4L952.5 228.9L952.1 233.4ZM928.3 237.9L922.5 242.4L924.6 239.1L927.8 236.2L930.4 232.9L932.7 228.3L933.4 232.1L930.6 234.7L928.3 237.9ZM943.0 225.8L945.6 227.3L948.3 227.3L948.3 229.2L946.2 231.2L943.5 232.6L943.3 230.4L943.6 228.1L943.0 225.8ZM958.7 224.5L959.9 229.8L956.6 228.5L956.7 230.1L957.7 233.0L955.7 234.1L955.5 230.8L954.2 230.5L953.5 227.7L956.0 228.1L956.0 226.3L953.3 222.7L957.5 222.8L958.7 224.5ZM941.4 220.3L940.3 224.3L938.4 222.0L936.2 218.4L939.9 218.6L941.4 220.3ZM940.5 194.8L943.2 196.1L944.5 194.9L944.9 196.1L944.2 198.0L945.7 201.4L944.6 205.3L942.0 206.9L941.3 210.6L942.3 214.4L944.6 214.9L946.5 214.3L952.0 216.9L951.5 219.5L953.0 220.6L952.5 222.8L949.1 220.5L947.5 218.0L946.4 219.7L943.6 216.9L939.7 217.6L937.5 216.6L937.7 214.6L939.1 213.4L937.8 212.4L937.2 214.1L935.1 211.4L934.4 209.3L934.3 204.8L936.0 206.4L936.5 199.0L937.9 194.8L940.5 194.8ZM127.9 196.1L126.8 197.3L123.5 197.2L120.9 197.4L120.7 195.4L121.3 194.7L124.9 194.7L127.1 195.1L127.9 196.1ZM78.7 197.8L77.4 198.5L74.9 197.8L72.4 196.1L73.0 195.0L74.8 194.7L75.8 194.8L78.7 195.3L81.0 196.4L81.7 197.7L78.7 197.8ZM97.5 188.4L101.3 189.1L101.8 188.3L105.2 188.3L107.8 189.5L108.9 189.4L109.7 191.1L112.1 191.0L111.9 192.4L113.9 192.5L116.0 194.3L114.4 196.2L112.3 195.2L110.3 195.4L108.9 195.1L108.1 196.0L106.5 196.3L105.8 195.1L104.3 195.8L102.6 199.0L101.5 198.3L101.3 196.9L98.4 196.1L96.3 196.5L93.7 196.1L91.6 197.0L89.3 195.5L89.7 194.0L93.7 194.7L97.0 195.0L98.5 194.0L96.6 192.0L96.6 190.2L93.9 189.4L94.8 188.2L97.5 188.4ZM892.8 194.0L889.0 196.2L885.5 194.8L885.3 190.7L887.5 188.6L892.2 187.3L894.7 187.4L895.7 189.2L893.8 191.3L892.8 194.0ZM66.6 174.8L68.3 176.5L72.4 176.0L73.9 177.1L77.6 180.0L80.3 182.1L81.8 182.0L84.4 183.0L84.0 184.3L87.2 184.5L90.5 186.4L90.0 187.5L87.1 188.1L84.2 188.3L81.2 188.0L75.0 188.4L77.9 185.8L76.1 184.6L73.3 184.3L71.8 182.9L70.8 180.3L68.3 180.4L64.3 179.2L63.0 178.2L57.3 177.5L55.8 176.6L57.4 175.4L53.1 175.1L50.0 177.6L48.2 177.6L47.6 178.8L45.4 179.3L43.6 178.9L45.9 177.4L46.8 175.7L48.8 174.7L51.0 173.7L54.3 173.3L55.3 172.8L59.1 173.1L62.5 173.2L66.6 174.8ZM75.9 170.1L74.9 170.3L73.8 167.6L72.1 166.3L73.1 163.3L74.4 163.5L75.9 167.4L75.9 170.1ZM939.9 174.7L938.0 178.5L935.7 174.5L935.2 171.1L937.8 166.4L941.3 162.9L943.3 164.3L942.5 167.1L939.9 174.7ZM74.7 156.9L70.0 157.6L69.7 155.9L71.7 155.5L74.6 155.7L74.7 156.9ZM78.3 156.8L77.5 160.2L76.7 159.6L76.8 157.1L74.8 155.2L74.8 154.7L78.3 156.8ZM998.4 121.3L999.0 123.0L996.5 125.8L994.8 124.3L992.5 125.4L991.4 128.1L988.5 126.8L988.6 124.6L991.0 121.8L993.5 122.3L995.2 120.3L998.4 121.3ZM563.4 114.2L560.4 116.2L560.8 117.1L560.9 117.5L556.4 119.4L554.3 118.7L553.3 116.9L555.4 116.7L555.7 116.7L556.3 115.5L559.4 115.6L563.4 114.2ZM516.1 114.0L518.5 115.6L521.9 115.3L525.1 115.7L525.0 116.5L527.3 115.9L526.8 117.3L520.5 117.7L520.6 116.9L515.3 116.0L516.1 114.0ZM480.5 102.2L479.0 105.9L479.6 107.3L478.7 109.7L475.4 108.0L473.2 107.5L467.1 105.1L467.7 102.7L472.8 103.1L477.2 102.6L480.5 102.2ZM453.1 88.2L455.7 91.5L455.1 97.7L453.1 97.4L451.3 99.0L449.7 97.8L449.5 92.1L448.5 89.4L450.9 89.7L453.1 88.2ZM1020.0 107.3L1020.0 111.0L1020.0 113.4L1020.0 116.7L1017.3 118.9L1009.6 119.2L1003.4 124.6L1000.5 122.8L1000.3 119.2L992.8 120.3L987.6 122.5L982.5 122.6L987.0 126.0L984.0 134.0L981.2 136.0L979.1 134.2L980.2 129.9L977.5 128.6L975.7 125.3L979.8 123.9L982.1 120.9L986.5 118.5L989.6 115.3L998.3 113.9L1002.9 114.9L1007.5 106.5L1010.4 108.8L1016.8 104.1L1019.3 102.3L1020.0 96.5L1020.0 91.2L1020.0 88.3L1020.0 87.4L1020.0 93.9L1020.0 97.7L1020.0 102.4L1020.0 107.3ZM454.6 83.8L453.2 87.4L451.2 86.4L450.2 83.3L451.1 81.5L453.9 79.7L454.6 83.8ZM136.2 63.1L139.4 63.8L143.4 63.6L141.3 65.6L139.7 65.9L134.2 63.9L133.1 62.3L134.7 60.8L136.2 63.1ZM144.3 51.1L142.2 51.2L136.6 49.7L132.5 47.5L134.0 47.1L139.7 48.3L144.2 50.3L144.3 51.1ZM169.0 43.7L166.1 47.8L168.9 46.2L171.9 47.2L170.3 48.9L174.2 50.2L176.2 49.0L180.5 50.5L179.2 53.9L182.2 53.1L182.8 55.6L184.1 58.5L182.3 62.6L180.3 62.8L177.5 61.9L178.4 58.1L177.2 57.5L172.2 61.6L169.6 61.4L172.6 59.2L168.5 58.1L163.8 58.3L155.4 58.2L154.7 56.8L157.4 55.1L155.5 53.9L159.2 51.0L163.7 43.6L166.4 40.9L170.1 39.3L172.1 39.5L171.3 40.8L169.0 43.7ZM383.5 36.3L375.8 39.1L369.7 38.4L373.2 33.5L370.9 28.7L376.8 25.0L380.1 22.8L383.8 22.7L388.4 25.6L386.1 28.8L386.8 32.1L383.5 36.3ZM468.2 20.6L465.6 24.4L461.1 21.8L460.4 19.8L466.8 18.3L468.2 20.6ZM400.0 6.4L395.3 11.5L399.8 10.8L404.5 10.9L403.4 14.7L399.5 18.9L404.0 19.2L408.2 25.2L411.2 26.0L413.8 31.3L415.1 33.2L420.4 34.1L419.8 37.1L417.6 38.5L419.3 40.9L415.4 43.3L409.6 43.3L402.2 44.6L400.2 43.7L397.3 45.9L393.3 45.3L390.2 47.1L387.9 46.2L394.3 41.3L398.2 40.2L391.4 39.5L390.1 37.6L394.7 36.1L392.3 33.6L393.1 30.5L399.6 31.0L400.2 28.2L397.3 25.3L392.0 24.5L391.0 23.2L392.5 21.1L391.1 19.8L388.8 22.0L388.5 17.5L386.3 15.1L387.9 10.2L391.3 6.4L394.7 6.8L400.0 6.4ZM-20.0 -20.0L-20.0 -20.0L-20.0 -20.0L-20.0 -20.0L-20.0 -20.0L-20.0 -20.0L-20.0 -20.0L-20.0 -20.0L-20.0 -20.0L-20.0 -20.0L-20.0 -20.0L-20.0 -20.0L-20.0 -20.0L-20.0 -20.0L-20.0 -20.0L-20.0 -20.0L-20.0 -20.0L-20.0 -20.0L-20.0 -20.0L-20.0 -20.0L-20.0 -20.0L-20.0 -20.0L-20.0 -20.0L-20.0 -20.0L1020.0 -20.0L1020.0 -20.0L1020.0 -20.0L1020.0 -19.1L1020.0 -15.3L1020.0 -14.0L1020.0 -12.1L1020.0 -10.8L1020.0 -11.8L1020.0 -8.3L1020.0 -7.8L1020.0 -4.5L1020.0 -1.6L1020.0 0.6L1020.0 -2.7L1020.0 1.0L1020.0 -0.8L1020.0 1.3L1020.0 0.6L1020.0 3.7L1020.0 8.2L1020.0 10.1L1020.0 11.2L1020.0 18.0L1020.0 18.2L1020.0 22.1L1020.0 24.2L1020.0 26.5L1020.0 31.9L1020.0 33.0L1020.0 37.8L1020.0 42.2L1020.0 39.0L1020.0 32.1L1020.0 21.7L1020.0 15.2L1020.0 12.4L1020.0 10.2L1020.0 9.1L1020.0 3.2L1020.0 -1.6L1020.0 -5.4L1020.0 -12.0L1020.0 -11.6L1020.0 -7.7L1020.0 -2.6L1020.0 -8.3L1020.0 -6.7L1020.0 1.1L1020.0 4.0L1020.0 5.2L1020.0 5.7L1020.0 2.3L1020.0 1.6L1020.0 3.9L1020.0 3.1L1020.0 4.5L1017.2 13.7L1000.5 24.7L1007.4 25.3L1009.5 28.3L1013.8 29.3L1016.5 27.0L1020.0 27.3L1020.0 32.4L1020.0 36.4L1020.0 41.1L1020.0 46.7L1020.0 54.2L1015.5 61.0L1014.0 64.3L1008.1 69.7L1002.2 75.2L999.4 77.9L993.6 80.7L990.9 80.7L988.2 78.5L982.3 81.9L981.7 83.5L980.0 83.2L978.1 84.8L976.8 86.4L977.0 89.7L974.7 90.8L974.0 91.6L972.3 93.0L969.4 93.8L967.5 95.0L967.4 97.1L966.9 97.6L968.6 98.3L971.1 100.4L974.8 105.9L975.9 109.0L976.0 114.4L974.3 117.0L970.4 117.9L966.9 119.8L963.0 120.2L962.5 117.7L963.3 114.1L961.4 109.2L964.6 108.5L961.6 104.4L959.5 103.5L959.0 104.4L957.7 104.8L957.6 103.9L956.4 103.5L955.3 102.8L956.5 100.7L957.5 100.1L957.1 99.3L958.2 96.7L957.9 96.0L955.4 95.5L953.3 94.2L947.2 95.6L944.1 97.8L939.4 99.1L941.7 96.9L940.8 95.0L944.2 91.9L941.9 89.4L938.1 91.1L933.2 94.4L930.5 97.4L926.3 97.6L924.1 99.8L926.4 103.0L929.9 103.7L930.0 105.9L933.5 107.2L938.4 103.9L942.2 105.7L945.0 105.8L945.7 108.3L939.6 109.6L937.5 112.1L933.3 114.5L931.1 117.8L935.8 120.3L937.5 125.0L940.1 129.3L943.1 132.9L943.0 136.4L940.3 137.6L941.3 140.1L943.9 141.6L943.2 145.4L942.1 149.1L939.7 149.6L936.5 154.7L933.0 160.8L928.9 166.4L923.0 170.7L916.9 174.7L912.0 175.2L909.4 177.3L907.9 175.8L905.4 178.1L899.3 180.5L894.7 181.2L893.2 186.2L890.8 186.4L889.7 183.0L890.7 181.2L884.9 179.7L882.8 180.5L877.0 184.5L873.4 188.9L872.4 192.2L875.8 197.1L879.8 203.3L883.8 206.2L886.4 209.9L888.4 218.6L887.8 226.9L884.2 230.0L879.2 233.0L875.7 236.9L870.3 241.3L868.7 238.3L869.9 235.1L866.7 232.4L863.0 231.7L861.3 229.3L859.1 224.4L855.2 222.3L851.4 222.4L852.1 218.7L848.2 218.7L847.9 223.9L845.6 230.7L844.1 234.9L844.4 238.3L847.3 238.4L849.0 242.7L849.8 246.8L852.3 249.4L854.9 250.0L857.1 252.4L858.1 252.9L860.7 255.7L862.5 258.8L862.8 262.0L862.3 264.1L862.7 265.8L863.1 268.5L864.6 269.8L866.3 274.0L866.2 275.6L863.1 275.9L859.0 272.4L853.9 268.7L853.4 266.3L850.8 263.1L850.3 259.3L848.7 256.7L849.2 253.3L848.2 251.3L846.5 249.5L845.7 247.2L843.4 244.5L841.3 242.3L840.6 245.0L839.8 242.4L840.3 239.5L841.5 235.0L841.1 231.5L842.5 227.9L841.0 225.2L841.3 220.0L839.6 217.6L838.2 212.0L837.4 206.1L835.5 202.2L832.6 204.5L827.7 207.9L825.3 207.5L822.6 206.4L824.1 200.5L823.2 196.1L819.7 190.7L820.3 189.0L817.7 188.4L814.6 184.6L813.4 182.2L813.2 179.8L812.3 177.5L810.5 174.8L806.5 174.6L806.9 176.5L805.5 179.1L803.7 178.2L803.0 179.0L801.8 178.5L800.1 178.1L799.5 179.8L796.6 179.8L791.2 180.7L791.4 184.3L789.1 187.0L782.9 190.2L778.0 195.7L774.7 198.7L770.4 201.8L770.4 203.9L768.2 205.1L764.3 206.8L762.3 207.0L761.0 210.6L761.9 216.7L762.1 220.6L760.3 225.0L760.3 233.0L758.0 233.2L756.0 236.8L757.3 238.4L753.4 239.7L751.9 242.9L750.2 244.2L746.1 239.9L744.1 233.3L742.4 228.6L740.9 226.3L738.5 221.8L737.5 216.0L736.7 213.0L732.8 206.6L731.0 197.5L729.7 191.5L729.7 185.8L728.8 181.4L722.5 184.2L719.4 183.6L713.8 178.0L715.8 176.3L714.6 174.4L709.5 170.4L706.3 169.2L705.0 165.9L701.6 162.3L693.6 163.2L686.5 163.3L680.4 163.9L672.2 162.5L667.5 161.4L662.6 160.8L660.7 155.1L658.7 154.2L655.3 155.1L650.9 157.3L645.6 155.8L641.2 152.2L637.1 150.8L634.1 146.4L630.9 140.1L628.6 140.9L625.8 139.3L624.2 141.2L621.6 140.9L622.5 143.0L622.2 144.1L623.5 147.6L625.2 151.7L627.4 152.7L628.1 154.4L631.1 156.4L631.4 158.3L630.9 159.9L631.5 161.4L632.7 162.7L633.3 164.3L634.0 165.4L633.7 162.0L634.8 159.6L636.0 159.1L637.3 160.5L637.4 163.3L636.5 166.0L637.3 167.8L638.1 167.6L638.2 168.9L641.6 168.1L645.2 168.3L647.9 168.4L650.8 165.2L654.1 162.2L656.8 159.3L658.1 157.7L658.6 158.1L658.2 160.1L657.7 160.9L658.2 164.6L660.2 167.8L662.6 169.5L665.8 170.2L668.4 171.0L670.3 173.7L671.5 175.3L673.1 175.9L673.1 176.9L671.5 179.7L670.8 181.0L669.0 182.5L667.3 185.7L665.4 185.5L664.5 186.6L663.8 189.0L664.3 192.1L663.9 192.7L661.9 192.7L659.2 194.4L658.7 196.7L657.8 197.7L655.1 197.7L653.3 198.9L653.4 200.8L651.3 202.1L648.9 201.6L646.0 203.2L644.0 203.5L640.8 204.7L640.0 206.8L639.9 208.4L635.5 210.4L628.6 212.6L624.7 215.9L622.8 216.2L621.5 215.9L618.9 217.8L616.2 218.7L612.5 219.0L611.4 219.2L610.5 220.5L609.3 220.8L608.7 222.0L606.5 221.9L605.1 222.6L602.1 222.3L601.0 219.6L601.1 217.0L600.4 215.6L599.5 212.2L598.3 210.2L599.2 210.0L598.7 207.8L599.2 206.9L599.0 204.9L598.5 202.9L597.2 201.5L596.8 199.6L594.6 197.9L592.3 194.0L591.0 190.2L588.0 186.9L586.1 186.2L583.2 181.7L582.7 178.4L582.9 175.6L580.4 170.4L578.4 168.6L576.0 167.6L574.6 164.9L574.8 163.9L573.6 161.5L572.3 160.4L570.7 156.9L568.0 153.1L565.8 149.9L563.6 149.9L564.3 147.3L564.5 145.7L565.0 143.8L564.9 143.2L563.7 145.0L562.7 148.6L561.5 151.0L560.5 151.9L559.1 150.3L557.1 148.2L554.0 141.5L553.6 141.9L555.4 146.9L558.0 151.6L561.3 158.9L562.9 161.5L564.3 164.1L568.2 169.3L567.4 170.1L567.5 173.2L572.6 177.4L573.3 178.4L574.7 183.0L573.8 183.8L574.4 188.7L576.0 194.3L577.7 195.4L580.0 197.2L582.6 202.6L583.8 206.9L586.2 209.2L592.1 213.6L594.5 216.3L596.9 219.0L598.2 220.6L600.3 222.0L601.4 223.5L601.2 225.4L598.8 226.5L600.6 227.8L602.1 228.7L602.9 230.6L604.9 232.6L607.0 232.6L611.1 231.4L615.8 230.9L619.7 229.4L621.8 229.1L623.4 228.2L625.9 228.1L627.3 228.0L629.3 227.3L631.6 226.8L633.6 225.2L635.3 225.2L635.4 226.5L635.0 229.2L635.0 231.7L634.1 233.4L632.8 238.5L630.7 243.7L628.1 249.7L624.3 256.6L620.6 261.8L615.5 268.2L611.1 272.0L604.7 276.7L600.6 280.3L595.8 285.9L594.8 288.4L593.9 289.5L590.8 291.4L589.7 293.4L588.1 293.7L587.5 297.0L586.1 298.9L585.2 302.0L583.5 303.6L581.5 309.4L581.7 312.0L584.5 313.7L584.6 315.0L583.5 317.8L583.7 319.2L583.4 321.5L584.9 324.4L586.7 329.0L588.3 330.1L589.0 332.2L588.9 336.8L589.4 341.0L589.6 348.3L590.3 350.6L589.0 354.0L587.3 357.2L584.6 360.1L580.6 361.9L575.7 364.2L570.8 369.2L569.1 370.1L566.1 373.4L564.3 374.5L563.9 377.8L566.0 381.4L566.8 384.1L566.9 385.6L567.7 385.3L567.5 389.9L566.8 392.1L567.9 392.9L567.2 394.9L565.4 396.5L561.8 398.1L556.6 400.7L554.7 402.4L555.0 404.4L556.2 404.7L555.8 407.2L554.7 410.6L554.2 414.5L553.1 416.6L550.1 419.0L549.2 419.6L547.4 422.0L546.2 424.4L543.7 427.8L538.8 432.6L535.7 435.5L532.5 437.6L527.9 439.4L525.7 439.7L525.1 441.0L522.5 440.3L520.3 441.2L515.6 440.3L513.0 440.8L511.2 440.6L506.7 442.4L503.0 443.2L500.3 445.0L498.3 445.1L496.5 443.4L495.0 443.3L493.1 441.2L492.9 441.9L492.4 440.6L492.4 437.9L491.0 434.7L492.4 433.8L492.3 430.3L489.4 425.9L487.2 421.9L487.2 421.9L484.1 415.8L480.9 412.2L479.2 408.8L478.2 404.2L477.1 400.8L475.7 393.6L475.6 388.0L475.0 385.4L473.3 383.5L471.1 379.6L468.8 374.0L467.9 371.0L464.3 366.4L464.1 362.8L463.7 359.9L464.3 355.8L465.8 351.5L466.0 349.5L467.4 345.2L468.4 343.3L470.9 340.2L472.3 338.1L472.8 334.7L472.5 332.0L471.2 330.3L470.1 327.5L469.0 324.7L469.3 323.7L470.6 321.8L469.3 317.3L468.4 314.1L466.2 311.2L466.6 310.3L466.0 308.8L464.8 305.3L461.3 300.3L456.8 295.6L453.9 291.7L451.3 286.8L451.4 285.3L452.4 283.8L453.4 280.4L454.3 276.9L453.5 276.2L455.0 270.9L455.6 267.2L453.9 264.1L451.9 263.3L451.1 261.2L450.0 260.5L450.0 259.2L445.5 260.9L443.8 260.7L442.2 261.7L438.7 261.6L436.4 258.7L434.9 255.3L431.8 252.2L428.6 252.3L424.7 252.3L421.2 252.8L417.7 253.8L410.8 256.5L408.4 258.2L404.5 259.5L400.6 258.2L398.7 258.2L395.6 257.3L392.8 257.4L387.7 258.2L384.7 259.5L380.4 261.3L379.5 261.1L378.4 261.2L373.9 258.9L369.9 255.4L366.2 252.8L363.3 249.8L362.1 249.4L359.0 247.5L356.7 245.0L356.0 243.3L355.5 239.8L353.5 237.1L351.9 235.2L350.7 234.6L349.7 233.7L349.2 231.6L348.5 230.6L347.3 229.8L344.9 227.8L343.1 227.5L342.1 226.2L342.1 225.5L340.8 224.5L340.5 223.5L339.8 219.9L340.4 217.8L338.6 214.2L336.4 212.5L338.3 211.6L340.4 208.3L341.5 205.9L341.1 203.4L342.3 201.1L342.8 196.6L342.4 192.0L341.8 189.7L342.3 187.3L341.1 185.1L338.9 183.1L339.0 181.1L339.3 178.9L340.9 177.6L342.3 175.2L342.1 173.6L343.6 170.3L346.0 167.3L347.4 166.5L348.6 163.8L348.7 161.3L350.3 158.4L353.1 156.7L355.9 151.9L358.2 150.0L362.2 149.5L365.7 146.3L367.8 145.0L371.5 141.1L370.4 135.3L372.0 131.3L372.6 128.8L375.4 125.6L379.8 123.5L383.0 121.5L385.9 116.7L387.3 113.8L390.5 113.8L393.1 115.8L397.2 115.5L401.7 116.5L403.6 116.6L407.8 114.0L412.5 113.2L415.2 111.2L419.4 109.8L426.8 109.0L434.0 108.6L436.2 109.3L440.3 107.4L444.9 107.4L446.7 108.5L449.7 108.2L454.4 106.3L457.4 106.9L457.3 109.3L461.0 107.5L461.3 108.4L459.1 110.7L459.1 112.9L460.6 114.1L460.0 118.1L457.2 120.5L458.0 123.0L460.2 123.1L461.3 125.4L463.0 126.1L468.1 127.7L469.9 127.3L473.6 128.1L479.3 130.2L481.4 134.4L485.3 135.3L491.4 137.2L496.0 139.6L498.2 138.3L500.2 136.2L499.2 132.6L500.6 130.3L503.7 128.1L506.7 127.5L512.6 128.4L514.1 130.5L515.7 130.5L517.1 131.3L521.4 131.9L522.5 133.5L528.2 133.4L532.4 134.6L536.7 136.0L538.8 136.7L542.1 135.2L543.9 133.9L547.7 133.5L550.8 134.1L552.0 136.4L553.0 134.9L556.5 136.0L559.9 136.3L562.0 135.1L563.3 133.5L563.0 133.3L564.1 131.1L565.0 127.5L565.6 126.4L565.8 126.3L567.3 122.5L569.5 119.2L569.6 119.0L569.2 115.4L570.2 113.5L568.6 111.4L570.3 109.6L567.6 110.0L564.0 108.9L561.0 111.6L554.4 112.1L550.9 109.6L546.2 109.5L545.2 111.4L542.2 112.0L538.0 109.5L533.2 109.6L530.6 104.9L527.5 102.3L529.6 98.6L526.8 96.4L531.6 91.9L538.3 91.7L540.2 88.2L548.5 88.8L553.7 85.7L558.8 84.4L565.9 84.3L573.5 87.6L579.8 89.4L584.8 88.7L588.6 89.1L593.7 86.7L594.4 84.7L593.3 81.5L590.8 79.7L588.4 79.2L586.8 77.8L581.2 73.8L576.3 72.0L572.5 69.3L575.7 68.5L579.3 64.6L576.8 62.7L583.3 60.8L583.1 59.8L579.2 60.5L575.8 60.9L572.9 62.4L568.8 62.7L565.1 64.4L565.3 67.4L567.4 68.5L571.9 68.2L571.0 69.9L566.3 70.7L560.4 73.4L557.9 72.4L558.9 70.2L554.1 68.9L554.9 68.0L559.1 66.4L557.8 65.3L551.1 64.2L550.8 62.4L546.7 63.0L545.1 65.6L541.8 69.0L541.9 70.2L539.7 71.3L538.4 70.8L537.2 76.5L535.0 78.4L533.4 81.8L534.8 84.5L535.3 86.3L539.1 87.8L538.3 88.9L533.1 89.2L531.3 90.6L527.6 93.2L526.3 91.0L526.3 90.0L523.7 89.9L521.4 89.4L516.2 90.7L519.2 93.3L517.0 94.1L514.5 94.1L512.2 91.6L511.4 92.7L512.4 95.5L514.6 97.7L512.9 98.7L515.4 100.9L517.5 102.2L517.6 104.9L513.5 103.6L514.8 106.0L512.1 106.5L513.7 110.7L510.8 110.7L507.3 108.7L505.6 104.9L504.9 101.8L503.2 99.6L500.9 97.0L500.7 95.6L499.9 95.3L499.8 94.3L497.4 92.7L497.0 90.5L497.4 87.3L498.0 85.8L497.3 85.1L496.4 84.7L495.1 83.2L493.3 82.2L489.2 80.5L486.6 78.8L482.7 77.4L479.0 74.0L479.9 73.6L477.9 71.6L477.8 70.0L475.0 69.3L473.7 71.3L472.4 69.8L472.5 68.1L472.7 68.1L473.6 67.6L470.2 66.9L466.6 68.6L466.9 70.9L466.3 72.3L467.8 74.7L471.9 77.0L474.0 80.9L478.9 84.7L482.3 84.7L483.3 85.7L482.1 86.6L486.0 88.3L489.2 89.8L492.9 92.2L493.4 93.1L492.6 94.8L490.2 92.6L486.4 91.8L484.6 94.8L487.7 96.6L487.2 99.0L485.4 99.3L483.0 103.3L481.2 103.7L481.2 102.3L482.1 99.7L483.1 98.7L481.4 96.0L480.1 93.7L478.3 93.1L477.0 91.0L474.2 90.2L472.3 88.3L469.1 88.0L465.7 85.9L461.7 82.8L458.7 80.1L457.4 75.5L455.2 74.9L451.7 73.4L449.7 74.0L447.2 76.2L445.4 76.5L441.4 79.2L432.9 77.9L426.5 79.4L426.0 82.3L426.3 85.0L422.1 88.1L416.6 89.1L416.2 90.7L413.5 93.3L411.8 97.1L413.5 99.8L411.0 101.9L410.1 104.9L406.8 105.9L403.7 109.5L398.2 109.6L394.0 109.5L391.3 111.1L389.7 112.9L387.5 112.5L385.9 110.9L384.7 108.2L380.6 107.5L378.9 108.7L376.6 108.1L374.4 108.6L375.0 104.9L374.6 102.0L372.7 101.6L371.6 99.8L372.0 96.7L373.7 95.0L374.0 93.1L374.9 90.3L374.8 88.3L374.0 86.6L373.8 85.0L374.0 81.7L372.2 79.7L378.4 76.3L383.7 77.1L389.5 77.1L394.1 77.9L397.7 77.7L404.8 77.8L407.0 75.0L407.9 65.6L403.4 60.7L400.2 58.3L393.5 56.5L393.1 53.1L398.7 52.1L406.0 53.3L404.6 48.0L408.7 50.0L418.9 46.3L420.2 42.5L424.0 41.6L427.5 40.6L429.7 39.3L433.5 32.4L439.5 30.5L443.1 30.6L443.9 29.6L447.5 29.3L448.4 30.4L451.3 28.1L450.3 26.3L450.1 23.6L448.3 21.0L448.2 16.2L448.9 15.0L450.2 13.6L454.0 13.3L455.5 12.0L459.0 10.7L458.9 13.1L457.6 14.6L458.1 15.9L460.5 16.6L459.4 18.4L458.1 17.9L455.0 21.3L456.2 23.5L456.3 25.4L460.7 26.5L460.6 28.1L465.0 27.2L467.5 26.0L472.4 27.8L474.4 29.3L477.4 27.9L484.2 25.8L489.7 24.2L494.0 25.0L494.3 26.1L498.5 26.2L499.5 24.1L505.5 22.6L504.6 18.6L504.7 15.1L506.9 12.1L511.0 10.5L514.4 14.1L517.9 14.0L518.8 10.4L519.3 7.6L517.7 8.2L514.9 6.5L514.5 3.8L520.0 2.5L525.5 1.8L530.2 2.6L534.7 2.5L539.6 -0.1L535.1 -2.4L527.2 -2.0L519.5 -0.3L512.5 0.7L510.0 -1.8L505.7 -3.4L506.7 -8.0L504.6 -12.2L506.7 -15.0L510.6 -17.9L520.6 -20.0L523.5 -20.0L523.0 -20.0L517.0 -20.0L509.5 -20.0L505.3 -20.0L505.9 -20.0L499.0 -16.9L490.6 -12.9L487.5 -6.3L490.6 -3.0L494.7 -0.4L490.7 4.9L486.2 6.0L484.6 13.9L482.1 18.3L476.8 17.8L474.3 21.6L469.3 21.8L467.9 17.3L464.3 12.0L461.0 5.4L458.1 2.5L449.5 7.9L443.7 9.0L437.7 6.6L436.1 1.6L434.7 -9.3L438.8 -12.3L450.2 -16.2L458.8 -20.0L466.8 -20.0L477.2 -20.0L484.5 -20.0L496.4 -20.0L506.0 -20.0L513.1 -20.0L519.8 -20.0L527.7 -20.0L535.5 -20.0L549.1 -20.0L543.5 -20.0L548.3 -20.0L552.7 -20.0L559.9 -20.0L571.8 -20.0L588.2 -20.0L591.6 -20.0L591.8 -20.0L587.0 -20.0L579.9 -20.0L560.5 -20.0L557.3 -20.0L564.4 -20.0L565.0 -20.0L570.6 -19.3L574.0 -18.1L574.5 -20.0L571.8 -20.0L574.7 -20.0L585.2 -20.0L588.9 -20.0L585.9 -20.0L596.1 -20.0L600.1 -20.0L604.1 -20.0L606.7 -20.0L603.0 -20.0L605.2 -20.0L602.0 -20.0L614.1 -20.0L616.6 -20.0L611.1 -20.0L611.1 -20.0L614.6 -20.0L621.3 -20.0L622.3 -20.0L631.4 -20.0L646.6 -20.0L649.9 -20.0L645.6 -20.0L651.0 -20.0L654.1 -20.0L662.3 -20.0L668.7 -20.0L673.7 -20.0L678.6 -20.0L674.0 -20.0L676.3 -20.0L689.1 -20.0L695.2 -20.0L710.9 -20.0L713.8 -20.0L709.4 -20.0L709.3 -20.0L704.0 -20.0L705.5 -20.0L703.2 -20.0L703.0 -20.0L711.0 -20.0L713.9 -20.0L717.1 -20.0L728.6 -20.0L729.5 -20.0L725.4 -20.0L728.1 -20.0L729.5 -20.0L728.5 -20.0L733.3 -20.0L731.5 -20.0L723.0 -20.0L727.9 -20.0L729.7 -20.0L734.4 -20.0L735.6 -20.0L739.4 -20.0L736.8 -20.0L738.9 -20.0L734.1 -20.0L733.0 -20.0L736.5 -20.0L730.9 -20.0L738.7 -20.0L737.6 -20.0L739.8 -20.0L742.1 -20.0L740.4 -20.0L745.0 -20.0L743.0 -20.0L750.3 -20.0L759.4 -20.0L767.4 -20.0L763.5 -20.0L763.1 -20.0L770.7 -20.0L781.1 -20.0L790.5 -20.0L787.0 -20.0L792.0 -20.0L797.0 -20.0L805.5 -20.0L817.0 -20.0L818.4 -20.0L829.8 -20.0L833.4 -20.0L843.1 -20.0L851.1 -20.0L852.3 -20.0L856.5 -20.0L866.7 -20.0L874.2 -20.0L868.3 -20.0L878.1 -20.0L879.3 -20.0L883.3 -20.0L896.0 -20.0L905.8 -20.0L909.3 -20.0L908.2 -20.0L903.4 -20.0L892.0 -20.0L888.7 -20.0L894.1 -20.0L900.5 -20.0L904.4 -20.0L906.6 -20.0L908.6 -20.0L915.5 -20.0L929.5 -20.0L930.5 -20.0L948.7 -20.0L948.9 -20.0L958.2 -20.0L965.1 -20.0L972.1 -20.0L974.1 -20.0L971.6 -20.0L977.0 -20.0L983.9 -20.0L988.1 -20.0L995.0 -20.0L1002.4 -20.0L1010.9 -20.0L1014.1 -20.0L1020.0 -20.0L1018.0 -20.0L1020.0 -20.0L1020.0 -20.0L1020.0 -20.0L1020.0 -20.0L1020.0 -20.0L1020.0 -20.0L1020.0 -20.0L1020.0 -20.0L1020.0 -20.0L1020.0 -20.0L1020.0 -20.0L1020.0 -20.0L1020.0 -20.0L1020.0 -20.0L1020.0 -20.0L1020.0 -20.0L1020.0 -20.0L1020.0 -20.0L1020.0 -20.0L1020.0 -20.0L-20.0 -20.0ZM626.6 87.9L628.8 91.2L630.8 91.4L632.1 92.7L628.6 93.0L627.8 96.7L627.1 98.3L625.5 99.4L625.6 101.8L627.0 105.2L631.1 106.2L634.1 108.6L640.3 109.4L647.1 108.1L647.5 107.0L646.7 103.7L647.3 98.8L643.9 97.2L645.0 94.0L642.2 93.7L643.1 89.8L647.2 90.9L651.0 89.4L647.9 86.6L646.6 83.9L643.1 85.1L642.7 88.6L641.3 85.5L641.1 84.4L642.1 82.4L641.3 80.8L636.3 79.2L634.3 75.0L631.9 73.8L631.8 72.2L636.0 72.7L636.2 69.3L639.9 68.5L643.7 69.2L644.4 64.6L643.7 61.7L639.3 61.9L635.6 60.8L630.6 62.9L626.5 63.8L624.5 66.6L620.3 67.4L616.0 72.2L620.0 76.7L619.5 79.9L624.3 85.4L626.6 87.9ZM19.4 -20.0L19.3 -20.0L25.2 -20.0L30.4 -20.0L29.1 -20.0L33.3 -20.0L37.8 -20.0L41.0 -20.0L41.2 -20.0L47.4 -20.0L53.8 -20.0L59.7 -20.0L59.9 -20.0L56.7 -20.0L59.7 -20.0L59.2 -20.0L50.7 -20.0L44.6 -20.0L40.1 -20.0L38.8 -20.0L34.6 -20.0L33.4 -20.0L28.3 -19.2L22.1 -18.9L18.7 -16.9L18.4 -13.9L13.3 -13.3L8.0 -9.5L3.3 -4.2L1.6 -0.5L1.4 4.9L7.8 5.7L9.7 10.1L11.8 13.7L17.8 12.7L25.9 14.8L30.3 16.6L33.4 18.8L38.8 20.1L43.4 22.0L50.6 22.3L55.3 22.8L54.6 26.8L56.0 31.6L59.1 36.8L65.6 41.3L69.0 39.7L71.3 34.9L69.0 27.5L66.0 25.0L72.9 22.8L77.8 19.5L80.3 16.3L79.9 13.1L76.9 9.1L71.7 5.6L76.8 0.7L74.9 -3.6L73.4 -10.9L76.5 -12.0L83.9 -10.7L88.4 -10.2L92.0 -11.5L96.0 -9.9L101.4 -7.2L102.7 -5.3L110.5 -5.0L110.4 -1.0L111.8 4.9L115.8 5.6L118.9 8.4L125.2 5.8L129.4 0.6L132.2 -1.6L135.6 2.6L141.3 8.6L146.1 14.2L144.3 17.2L150.1 19.8L154.1 22.5L161.0 23.7L163.8 25.2L165.5 29.2L168.9 29.8L170.6 31.6L170.9 36.9L167.8 38.6L164.7 40.3L157.5 41.9L152.0 45.8L144.7 46.6L135.4 45.6L128.9 45.5L124.4 45.9L120.7 49.2L115.2 51.3L108.9 57.5L103.9 61.9L107.6 61.1L114.6 54.9L123.7 51.0L130.2 50.5L134.0 52.8L129.9 56.0L131.3 61.1L132.7 64.6L138.4 66.9L145.6 66.3L149.9 61.0L150.2 64.4L153.0 66.1L147.7 69.2L138.0 72.0L133.7 73.9L128.9 77.2L125.5 76.9L125.4 72.9L132.9 69.0L126.0 69.2L121.1 69.8L121.9 71.3L117.3 73.6L112.8 75.2L108.2 76.6L105.7 79.7L105.2 80.4L105.1 82.9L106.5 85.4L108.3 85.5L107.9 83.8L109.2 84.8L108.8 86.2L105.9 87.0L103.8 86.9L100.6 87.7L98.7 87.9L96.2 88.1L92.6 89.5L99.0 88.6L100.2 89.5L94.2 90.9L91.4 90.9L91.5 90.4L90.2 91.7L91.5 91.9L90.5 95.2L87.4 98.9L87.0 97.6L86.1 97.4L84.7 96.2L85.6 98.8L86.6 99.6L86.7 101.4L85.3 103.2L82.9 106.9L82.5 106.8L83.8 103.6L81.6 101.8L81.1 97.9L80.3 99.9L81.2 102.9L78.4 102.2L81.3 103.7L81.5 108.1L82.7 108.4L83.2 110.1L83.8 114.8L81.0 118.2L76.5 119.6L73.7 122.4L71.5 122.7L69.3 124.4L68.7 126.0L63.9 129.0L61.5 131.3L59.4 134.1L58.7 137.4L59.5 140.7L61.0 144.7L62.9 148.0L62.9 150.0L65.0 155.5L64.8 158.6L64.6 160.5L63.6 163.3L62.3 163.9L60.1 163.3L59.4 161.3L57.8 160.2L55.5 156.2L53.5 152.6L52.8 150.7L53.7 147.6L52.5 145.0L49.1 141.1L47.4 140.4L43.0 142.5L42.2 142.3L40.1 140.1L37.4 138.9L32.5 139.5L28.6 139.0L25.3 139.3L23.4 140.0L24.3 141.3L24.2 143.2L25.1 144.1L24.3 144.8L22.7 144.1L21.1 145.0L17.9 144.8L14.7 142.3L10.9 142.9L7.7 141.8L5.0 142.2L1.3 143.3L-2.6 146.7L-6.9 148.8L-9.3 151.0L-10.3 153.1L-10.3 156.4L-10.1 158.6L-9.3 160.2L-9.3 160.2L-9.3 160.2L-11.0 164.3L-11.8 167.7L-12.1 174.0L-12.5 176.3L-11.7 178.8L-10.4 181.1L-9.5 184.8L-6.6 188.3L-5.6 190.9L-3.9 193.3L0.7 194.5L2.5 196.5L6.3 195.2L9.6 194.7L12.9 193.8L15.6 193.0L18.4 191.1L19.4 188.4L19.8 184.4L20.5 183.1L23.5 181.8L28.1 180.7L31.9 180.9L34.6 180.5L35.6 181.5L35.5 183.8L33.1 186.6L32.1 189.4L32.9 190.2L32.2 192.3L31.2 195.9L30.0 194.7L29.1 194.8L29.1 195.5L30.0 195.5L29.9 196.8L29.2 198.8L29.6 199.5L29.1 201.2L29.4 201.7L28.9 204.0L28.0 205.3L27.3 205.4L26.4 207.1L27.8 207.9L28.2 207.2L29.5 207.8L29.9 208.0L30.9 207.2L32.1 207.1L32.5 207.5L33.2 207.3L35.2 207.7L37.2 207.5L38.6 207.0L39.1 206.5L40.5 206.8L41.5 207.1L42.7 207.0L43.5 206.6L45.5 207.2L46.2 207.3L47.6 208.2L48.8 209.2L50.4 210.0L51.5 211.2L51.2 211.7L50.9 212.7L51.4 214.5L50.4 216.1L49.9 217.9L49.8 220.0L50.0 221.2L50.1 223.3L49.4 223.8L49.0 225.8L49.3 227.1L48.5 228.2L48.6 229.5L49.3 230.3L50.4 232.8L52.1 234.7L54.1 236.7L55.7 238.4L55.6 239.4L57.4 239.6L57.8 239.2L59.0 240.4L61.1 240.1L63.0 238.9L65.6 237.9L67.1 236.5L69.5 236.8L69.3 237.3L71.7 237.4L73.7 238.2L75.1 239.6L76.7 240.9L79.0 241.1L82.2 237.8L84.0 237.3L84.1 235.8L84.9 231.8L87.4 229.6L90.1 229.5L90.4 228.5L93.9 228.9L97.3 226.6L99.0 225.5L101.1 223.3L102.6 223.5L103.7 224.8L102.9 226.4L102.8 227.5L100.2 228.0L101.6 230.1L101.6 232.6L99.7 235.3L101.3 239.0L103.2 238.7L104.2 235.4L102.8 233.7L102.6 230.1L108.0 228.2L107.4 226.0L108.9 224.5L110.5 227.8L113.6 227.9L116.4 230.5L116.5 232.1L120.4 232.1L125.1 231.7L127.6 233.7L130.9 234.3L133.3 232.9L133.4 231.7L138.8 231.4L144.0 231.3L140.3 232.7L141.8 234.9L145.3 235.3L148.6 237.6L149.3 241.4L151.5 241.3L153.2 242.4L156.1 244.1L158.8 247.1L158.9 249.6L160.5 249.7L162.9 252.0L164.6 253.6L169.8 254.5L170.3 253.7L173.8 253.3L178.4 254.6L179.9 255.1L183.1 256.2L187.7 260.2L188.4 262.1L189.9 261.9L191.0 264.5L193.4 272.7L195.8 273.5L195.9 276.7L192.6 280.6L194.0 282.0L201.7 282.7L201.8 287.4L205.1 284.4L210.6 286.0L217.8 288.9L219.9 291.7L219.2 294.3L224.3 292.8L232.7 295.3L239.2 295.1L245.6 299.0L251.2 304.3L254.6 305.6L258.3 305.8L259.8 307.3L261.3 313.3L262.0 316.1L260.3 323.9L258.1 326.9L252.0 333.5L249.2 338.8L246.0 342.8L244.9 342.9L243.7 346.4L244.0 355.2L242.8 362.4L242.3 365.5L240.9 367.4L240.2 373.6L235.8 379.8L235.0 384.6L231.5 386.6L230.5 389.5L225.8 389.4L218.9 391.2L215.9 393.3L211.0 394.7L205.9 398.4L202.2 403.1L201.6 406.6L202.3 409.2L201.5 413.9L200.5 416.2L197.4 418.8L192.6 427.1L188.8 430.8L185.8 433.0L183.9 437.5L181.0 440.1L179.1 443.1L174.2 445.7L171.0 444.8L168.6 445.3L164.6 443.2L161.7 443.4L159.0 440.8L158.7 443.2L164.2 447.3L163.6 450.5L166.4 452.6L166.1 454.8L162.0 460.9L155.5 463.4L146.8 464.4L142.0 463.9L142.9 466.7L142.0 470.2L142.8 472.6L140.2 474.2L135.8 474.9L131.6 473.2L129.9 474.4L130.5 479.0L133.5 480.0L135.8 479.0L137.1 480.0L133.1 480.0L129.7 480.0L129.0 480.0L128.0 480.0L123.9 480.0L120.5 480.0L119.2 480.0L123.5 480.0L127.6 480.0L126.1 480.0L121.0 480.0L118.2 480.0L114.2 480.0L112.4 480.0L113.8 480.0L116.7 480.0L114.9 480.0L111.0 480.0L108.9 480.0L105.0 480.0L104.3 480.0L102.5 480.0L97.6 480.0L92.6 480.0L87.2 480.0L85.8 480.0L87.1 480.0L84.9 480.0L84.3 480.0L86.2 480.0L90.8 480.0L84.1 480.0L88.3 480.0L89.8 480.0L94.6 480.0L96.9 480.0L94.0 479.3L92.6 480.0L89.9 480.0L91.2 477.8L92.7 469.1L94.7 465.9L93.5 461.3L93.1 456.0L94.9 455.9L97.6 448.3L100.6 440.8L102.4 433.8L101.4 426.8L102.7 422.9L102.2 417.1L104.8 411.4L105.5 402.3L106.9 392.5L108.3 382.1L108.0 374.4L107.1 367.8L102.7 365.1L102.3 363.1L93.7 358.4L85.9 353.3L82.6 350.4L80.8 346.5L81.5 345.2L77.8 339.0L73.5 330.3L69.4 321.0L67.6 318.9L66.3 315.4L62.9 312.3L59.8 310.4L61.2 308.3L59.1 303.9L60.4 300.6L63.9 297.6L66.2 294.1L65.3 292.1L63.6 294.2L61.0 292.2L61.9 290.9L61.2 286.6L62.7 285.9L63.5 283.0L65.1 279.9L64.8 278.0L67.2 277.0L70.2 275.1L69.6 273.7L71.2 273.3L71.0 271.0L72.0 269.3L74.2 269.0L76.0 266.0L77.7 263.6L76.1 262.4L76.9 259.7L75.9 255.4L76.9 254.2L76.2 250.2L74.4 247.7L73.0 246.4L72.0 243.8L73.1 242.6L72.0 242.3L71.2 240.7L69.0 239.4L67.1 239.7L66.3 241.3L64.5 242.5L63.6 242.7L63.1 243.7L65.2 246.2L64.0 246.8L63.4 247.5L61.4 247.7L60.6 244.9L60.0 245.7L58.6 245.5L57.7 243.6L55.9 243.3L54.8 242.7L53.0 242.7L52.8 243.7L52.3 243.0L50.0 242.0L49.1 241.0L49.6 240.2L49.4 239.1L48.2 238.0L46.5 237.1L45.0 236.5L44.7 235.1L43.6 234.3L43.9 235.7L43.0 236.8L42.0 235.5L40.6 235.0L40.0 234.1L40.0 232.6L40.6 231.1L39.4 230.5L40.4 229.6L38.9 228.1L36.8 226.2L35.9 224.6L34.1 223.2L31.9 221.0L32.4 220.3L33.1 221.0L33.4 220.7L32.7 219.2L31.3 218.8L30.9 219.9L28.3 219.8L26.8 219.4L25.0 218.5L22.6 218.2L21.3 217.2L19.1 216.3L16.4 216.3L14.4 215.3L12.1 213.4L7.1 208.3L4.9 206.8L1.3 205.6L-1.1 205.9L-4.6 207.7L-6.8 208.2L-9.8 206.9L-13.1 206.0L-17.2 203.9L-20.0 203.2L-20.0 201.0L-20.0 198.8L-20.0 197.5L-20.0 197.3L-20.0 195.8L-20.0 193.6L-20.0 191.0L-20.0 188.0L-20.0 185.7L-20.0 185.3L-20.0 183.9L-20.0 182.7L-20.0 181.1L-20.0 179.0L-20.0 177.1L-20.0 174.7L-20.0 170.1L-20.0 166.4L-20.0 163.5L-20.0 161.6L-20.0 160.4L-20.0 157.5L-20.0 156.4L-20.0 154.1L-20.0 150.9L-20.0 150.5L-20.0 148.0L-20.0 145.7L-20.0 144.3L-20.0 140.7L-20.0 137.1L-20.0 135.3L-20.0 133.5L-20.0 133.7L-20.0 132.4L-20.0 134.3L-20.0 136.5L-20.0 140.1L-20.0 142.0L-20.0 145.2L-20.0 146.3L-20.0 146.7L-20.0 148.3L-20.0 148.2L-20.0 151.2L-20.0 152.4L-20.0 154.1L-20.0 156.5L-20.0 160.8L-20.0 162.9L-20.0 165.1L-20.0 167.6L-20.0 167.7L-20.0 169.9L-20.0 172.0L-20.0 172.8L-20.0 174.5L-20.0 174.5L-20.0 171.7L-20.0 169.0L-20.0 166.7L-20.0 165.5L-20.0 162.1L-20.0 159.5L-20.0 158.1L-20.0 156.0L-20.0 156.6L-20.0 155.4L-20.0 154.2L-20.0 151.5L-20.0 151.2L-20.0 151.4L-20.0 149.7L-20.0 147.5L-20.0 144.2L-20.0 142.9L-20.0 140.0L-20.0 136.9L-20.0 133.1L-20.0 128.9L-20.0 126.5L-20.0 123.8L-20.0 123.3L-20.0 121.9L-20.0 121.7L-20.0 120.4L-20.0 119.9L-20.0 119.2L-20.0 116.6L-20.0 111.9L-20.0 105.4L-20.0 104.3L-20.0 102.7L-20.0 98.8L-20.0 95.0L-20.0 92.4L-20.0 88.5L-20.0 84.5L-20.0 80.9L-20.0 76.5L-20.0 68.0L-20.0 61.7L-20.0 57.6L-20.0 55.5L-20.0 54.5L-20.0 56.1L-20.0 60.6L-20.0 59.3L-20.0 55.5L-20.0 51.6L-20.0 51.6L-20.0 47.0L-20.0 45.0L-20.0 43.0L-20.0 38.9L-20.0 36.0L-20.0 34.0L-20.0 30.2L-20.0 26.8L-20.0 24.4L-20.0 22.6L-20.0 21.1L-20.0 17.0L-20.0 13.2L-20.0 8.8L-20.0 8.5L-20.0 8.4L-20.0 7.0L-20.0 2.2L-20.0 1.3L-20.0 -0.4L-20.0 -0.0L-20.0 -2.2L-20.0 -4.2L-20.0 -3.2L-20.0 0.1L-20.0 0.4L-20.0 1.4L-20.0 3.0L-20.0 4.0L-20.0 1.2L-20.0 -3.4L-20.0 -4.9L-20.0 -6.0L-20.0 -3.4L-20.0 -0.3L-20.0 3.1L-20.0 5.3L-20.0 8.7L-20.0 10.7L-20.0 12.1L-20.0 14.2L-20.0 16.6L-20.0 18.8L-20.0 20.8L-20.0 20.4L-20.0 21.8L-20.0 23.4L-20.0 24.9L-20.0 26.3L-20.0 25.5L-20.0 23.3L-20.0 21.8L-20.0 19.3L-20.0 18.7L-20.0 16.8L-20.0 14.0L-20.0 13.1L-20.0 11.4L-20.0 7.8L-20.0 5.1L-20.0 6.5L-20.0 5.7L-20.0 7.4L-20.0 5.0L-20.0 6.7L-20.0 4.4L-20.0 6.2L-20.0 6.2L-20.0 3.4L-20.0 1.7L-20.0 0.0L-20.0 0.9L-20.0 -1.3L-20.0 -2.4L-20.0 -5.0L-20.0 -7.0L-20.0 -9.7L-20.0 -12.4L-20.0 -14.8L-20.0 -15.1L-20.0 -14.4L-20.0 -16.6L-20.0 -16.2L-20.0 -17.7L-20.0 -19.8L-20.0 -20.0L-20.0 -20.0L-20.0 -20.0L-20.0 -20.0L-20.0 -20.0L-20.0 -20.0L-20.0 -20.0L-20.0 -20.0L-20.0 -20.0L-20.0 -20.0L-20.0 -20.0L-20.0 -20.0L-20.0 -20.0L-20.0 -20.0L-20.0 -20.0L-20.0 -20.0L-20.0 -20.0L-20.0 -20.0L-20.0 -20.0L-20.0 -20.0L-20.0 -20.0L-20.0 -20.0L-20.0 -20.0L-20.0 -20.0L-20.0 -20.0L-20.0 -20.0L-20.0 -20.0L-20.0 -20.0L-20.0 -20.0L-20.0 -20.0L-20.0 -20.0L-20.0 -20.0L-20.0 -20.0L-20.0 -20.0L-20.0 -20.0L-20.0 -20.0L-20.0 -20.0L-20.0 -20.0L-20.0 -20.0L-20.0 -20.0L-20.0 -20.0L-20.0 -20.0L-20.0 -20.0L-20.0 -20.0L-20.0 -20.0L-20.0 -20.0L-20.0 -20.0L-20.0 -20.0L-20.0 -20.0L-20.0 -20.0L-20.0 -20.0L-20.0 -20.0L-20.0 -20.0L-20.0 -20.0L-20.0 -20.0L-20.0 -20.0L-20.0 -20.0L-20.0 -20.0L-20.0 -20.0L-20.0 -20.0L-20.0 -20.0L-20.0 -20.0L-20.0 -20.0L-20.0 -20.0L-20.0 -20.0L-20.0 -20.0L-20.0 -20.0L-20.0 -20.0L-20.0 -20.0L-20.0 -20.0L-20.0 -20.0L-20.0 -20.0L-20.0 -20.0L-20.0 -20.0L-20.0 -20.0L-20.0 -20.0L-20.0 -20.0L-20.0 -20.0L-20.0 -20.0L-20.0 -20.0L-15.0 -20.0L-15.5 -20.0L-11.6 -20.0L-4.9 -20.0L-4.9 -20.0L-2.1 -20.0L1.4 -20.0L3.3 -20.0L-1.3 -20.0L-6.4 -20.0L-6.1 -20.0L-0.9 -20.0L4.8 -20.0L9.2 -20.0L15.1 -20.0L11.3 -20.0L19.4 -20.0Z" fill="#1b2a6b" stroke="#33509a" stroke-width="0.6"/>
<circle cx="91" cy="259.5" r="6" fill="#00e5ff"/><text x="91" y="251.5" font-size="11" fill="#fff" text-anchor="middle" font-family="monospace">Bogotá</text>
<circle cx="64.4" cy="160.7" r="4" fill="#7cc"/><text x="64.4" y="152.7" font-size="11" fill="#fff" text-anchor="middle" font-family="monospace">Miami</text>
<circle cx="210.3" cy="392.2" r="4" fill="#7cc"/><text x="210.3" y="384.2" font-size="11" fill="#fff" text-anchor="middle" font-family="monospace">São Paulo</text>
<circle cx="397" cy="91.9" r="4" fill="#7cc"/><text x="397" y="83.9" font-size="11" fill="#fff" text-anchor="middle" font-family="monospace">Madrid</text>
<circle cx="432.5" cy="37.9" r="4" fill="#7cc"/><text x="432.5" y="29.9" font-size="11" fill="#fff" text-anchor="middle" font-family="monospace">Rotterdam</text>
<circle cx="653.3" cy="163.3" r="4" fill="#7cc"/><text x="653.3" y="155.3" font-size="11" fill="#fff" text-anchor="middle" font-family="monospace">Dubái</text>
<circle cx="864.4" cy="275.3" r="4" fill="#7cc"/><text x="864.4" y="267.3" font-size="11" fill="#fff" text-anchor="middle" font-family="monospace">Singapur</text>
<circle cx="941.2" cy="135" r="4" fill="#7cc"/><text x="941.2" y="127" font-size="11" fill="#fff" text-anchor="middle" font-family="monospace">Shanghái</text>
</svg>